<svg width="900" height="359" viewBox="0 0 900 359" fill="none" xmlns="http://www.w3.org/2000/svg">
<path fill-rule="evenodd" clip-rule="evenodd" d="M628.136 283.263C627.458 284.342 627.119 285.529 627.119 286.824V288.442C627.119 289.306 627.571 289.737 628.475 289.737H629.153C630.057 289.737 630.847 289.413 631.525 288.766L639.831 280.835C643.785 277.058 648.136 273.713 652.881 270.799L662.373 264.972C667.119 262.058 672.203 259.846 677.627 258.336L690.17 254.775C695.593 253.264 701.13 252.508 706.78 252.508H713.559C719.209 252.508 724.746 253.318 730.169 254.936L735.932 256.555C741.356 258.174 746.497 260.386 751.356 263.191L758.814 267.724C763.672 270.529 767.966 273.982 771.695 278.083L784.915 292.327C788.192 295.996 790.96 299.989 793.22 304.305L795.763 309.161C797.458 312.398 798.757 315.743 799.661 319.197L801.356 325.671C801.582 326.534 802.147 326.966 803.051 326.966H803.729C804.633 326.966 805.198 326.534 805.424 325.671L806.102 323.081C806.554 321.355 806.723 319.628 806.61 317.902L805.424 300.744C805.198 296.643 804.407 292.651 803.051 288.766L802.034 285.852C800.678 281.968 798.87 278.299 796.61 274.846L790.508 265.296C787.797 261.087 784.633 257.256 781.017 253.803L778.136 251.052C774.633 247.706 770.847 244.739 766.78 242.149L763.729 240.207C759.661 237.617 755.311 235.567 750.678 234.056L740.17 230.819C734.859 229.092 729.379 228.229 723.729 228.229H708.475C702.825 228.229 697.345 229.2 692.034 231.142L672.373 238.264C667.062 240.207 662.316 243.012 658.136 246.681L646.949 256.717C642.768 260.386 639.266 264.54 636.441 269.18L628.136 283.263Z" fill="#BABABA"/>
<path fill-rule="evenodd" clip-rule="evenodd" d="M420.339 292.003C420.339 293.73 421.243 294.593 423.051 294.593L585.763 296.212C587.345 296.212 588.814 295.78 590.169 294.917L591.186 294.269C592.542 293.406 593.559 292.273 594.237 290.87L596.271 287.147C597.627 284.558 598.531 281.806 598.983 278.892L599.322 276.464C599.774 273.443 598.418 271.932 595.254 271.932H436.441C431.356 271.932 427.684 274.09 425.424 278.407L421.525 285.852C420.734 287.363 420.339 288.982 420.339 290.708V292.003Z" fill="#BABABA"/>
<path fill-rule="evenodd" clip-rule="evenodd" d="M466.949 34.639C466.384 35.2864 466.102 36.0418 466.102 36.9051V37.5526C466.102 38.4158 466.554 38.8475 467.457 38.8475H470.169C471.977 38.8475 473.729 38.5777 475.424 38.0381L503.729 29.9449C509.152 28.3263 514.689 27.3011 520.339 26.8695L525.424 26.5458C531.073 26.1141 536.61 26.6537 542.034 28.1644L549.491 30.1068C554.915 31.6175 560 33.8836 564.746 36.9051L585.932 50.3398C587.401 51.311 589.039 51.7966 590.847 51.7966H592.881C594.237 51.7966 594.915 51.1492 594.915 49.8542V48.8831C594.915 47.5881 594.633 46.3472 594.068 45.1602L590.847 39.1712C589.039 35.7181 586.893 32.4808 584.407 29.4593L581.017 25.2509C577.853 21.3661 574.181 18.0209 570 15.2153L566.102 12.6254C561.582 9.60396 556.666 7.39182 551.356 5.98899L542.034 3.72289C536.61 2.32007 531.073 1.83447 525.424 2.26611L520.339 2.58984C514.689 3.02148 509.265 4.26244 504.068 6.31272L496.949 9.22628C493.333 10.6291 489.943 12.4096 486.78 14.5678L484.407 16.1865C481.243 18.3446 478.474 20.8805 476.102 23.7941L466.949 34.639Z" fill="#A8BAC2"/>
<path fill-rule="evenodd" clip-rule="evenodd" d="M614.746 70.4111C613.955 70.9506 613.559 71.652 613.559 72.5153V73.1628C613.559 74.026 614.011 74.4577 614.915 74.4577H617.627C619.435 74.4577 621.186 74.1339 622.881 73.4865L645.424 64.584C647.91 63.6128 650.508 63.343 653.22 63.7746L655.254 64.0983C657.966 64.53 660.395 65.6091 662.542 67.3356L665.424 69.6017C668.136 71.7599 671.13 73.5404 674.407 74.9433L678.644 76.7238C682.712 78.4503 686.893 78.7741 691.186 77.695L710.339 72.839C714.746 71.7599 719.209 71.2204 723.729 71.2204H727.119C731.638 71.2204 735.876 72.2455 739.831 74.2958L745.085 77.0475C750.057 79.6373 754.802 82.5509 759.322 85.7882L781.356 101.975C785.876 105.212 790.678 107.964 795.763 110.23L810.509 116.704C812.542 117.675 814.689 117.945 816.949 117.514L820.678 116.866C821.582 116.65 822.034 116.111 822.034 115.247V114.6C822.034 113.737 821.751 112.981 821.186 112.334L802.373 91.6153C800.791 89.8887 799.548 87.9464 798.644 85.7882L797.966 84.1695C797.062 82.0113 797.627 80.2848 799.661 78.9899L802.881 77.0475C805.48 75.3209 808.362 74.4577 811.525 74.4577H813.898C817.062 74.4577 819.887 75.3749 822.373 77.2094L857.797 103.431C862.203 106.777 866.893 109.798 871.864 112.496L888.475 121.398C890.509 122.477 892.655 123.233 894.915 123.664L898.644 124.312C899.548 124.528 900 124.204 900 123.341V122.693C900 121.83 899.661 121.129 898.983 120.589L875.593 99.3848C871.525 95.7159 867.74 91.7772 864.237 87.5687L834.068 51.6348C830.565 47.4263 826.836 43.4337 822.881 39.6568L816.441 33.506C814.52 31.6715 812.203 30.5385 809.492 30.1068L807.458 29.7831C804.746 29.3515 802.429 30.0529 800.508 31.8873L777.288 54.0628C776.61 54.7102 775.819 55.0339 774.915 55.0339H774.237C773.333 55.0339 772.542 54.7642 771.864 54.2246L737.966 24.6034C734.124 21.1503 729.944 18.1289 725.424 15.539L718.814 11.6543C716.441 10.3594 713.898 9.71191 711.186 9.71191H708.136C706.102 9.71191 704.181 10.1436 702.373 11.0068L701.017 11.6543C699.209 12.5176 697.571 13.6506 696.102 15.0534L683.898 26.7077C679.944 30.4845 675.537 33.7218 670.678 36.4195L649.661 47.75C644.802 50.4478 640.056 53.3613 635.424 56.4907L614.746 70.4111Z" fill="#6F7744"/>
<path fill-rule="evenodd" clip-rule="evenodd" d="M388.983 69.6016C386.158 69.6016 385.198 70.8965 386.102 73.4863L386.78 75.4287C387.684 78.0185 389.096 80.3386 391.017 82.3888L395.254 87.0829C398.418 90.536 402.429 92.3165 407.288 92.4244L465.508 93.0719L523.729 93.7194C529.378 93.8273 534.181 95.8236 538.136 99.7083L590.508 151.181C591.186 151.829 591.525 152.584 591.525 153.447V154.095C591.525 154.958 591.073 155.444 590.169 155.552L495.254 161.702C493.898 161.81 493.22 162.512 493.22 163.807V164.778C493.22 166.073 493.616 167.26 494.407 168.339L498.305 173.519C500.565 176.54 503.616 178.105 507.458 178.213L647.458 182.583C653.107 182.799 658.701 183.284 664.237 184.04L793.22 201.845C795.48 202.169 797.514 202.978 799.322 204.273L800.678 205.244C802.486 206.539 803.955 208.104 805.085 209.938L834.746 260.116C837.571 264.756 841.751 267.562 847.288 268.533L878.135 273.713C883.672 274.684 886.667 272.472 887.119 267.076L887.458 262.22C887.909 256.825 885.593 252.94 880.508 250.566L875.424 247.976C870.339 245.602 866.384 242.095 863.559 237.455L838.136 194.723C835.311 190.083 831.695 186.036 827.288 182.583L821.864 178.374C817.458 174.921 812.486 172.817 806.949 172.062L659.152 151.667C653.616 150.911 648.757 148.753 644.576 145.192L560.508 73.3244C556.328 69.7634 551.412 67.9829 545.763 67.9829L388.983 69.6016Z" fill="#BABABA"/>
<path fill-rule="evenodd" clip-rule="evenodd" d="M317.797 330.042C314.972 330.149 314.011 331.498 314.915 334.088L315.593 336.031C316.497 338.62 317.91 340.94 319.831 342.991L332.373 355.94C334.52 358.206 337.175 359.123 340.339 358.692L342.712 358.368C345.876 357.936 348.305 356.425 350 353.836L361.695 335.059C362.373 333.98 362.712 332.793 362.712 331.498V330.527C362.712 329.232 362.034 328.585 360.678 328.585L317.797 330.042ZM425.593 173.033C426.61 167.745 425.424 162.943 422.034 158.627L379.661 103.593C376.271 99.2768 373.446 94.6367 371.186 89.6729L331.525 2.42797C330.847 0.809322 329.605 0 327.797 0H326.441C324.633 0 323.39 0.809322 322.712 2.42797L296.441 62.1559C294.294 67.1198 290.565 68.6845 285.254 66.85L268.814 61.0229C263.616 59.1884 258.757 56.7605 254.237 53.739L250.847 51.4729C246.328 48.4514 245.254 44.5667 247.627 39.8186L256.102 22.3373C257.119 20.3949 257.401 18.3446 256.949 16.1864L256.61 14.5678C256.158 12.4096 254.802 11.1686 252.542 10.8449L213.559 5.98898C207.91 5.23362 202.655 6.2048 197.797 8.90254L192.034 12.1398C187.175 14.8376 183.22 18.4525 180.169 22.9847L174.068 32.0491C171.017 36.5814 166.667 38.5237 161.017 37.8763L147.458 36.5814C141.808 35.9339 137.119 37.6604 133.39 41.761L97.1186 81.2559C93.3898 85.3565 89.0395 88.6477 84.0678 91.1297L53.2203 106.345C48.2486 108.827 43.3898 111.579 38.6441 114.6L4.57627 136.29C1.52542 138.232 0 140.93 0 144.383V146.973C0 150.426 0.451977 153.825 1.35593 157.17L21.5254 228.553C22.9944 233.732 23.5593 239.02 23.2203 244.415L22.5424 254.127C22.2034 259.523 23.9548 264.217 27.7966 268.209L35.2542 276.141C37.7401 278.731 40.791 279.81 44.4068 279.378L47.1186 279.054C50.7345 278.623 54.2373 277.759 57.6271 276.464L185.254 229.524C190.565 227.581 195.48 228.283 200 231.628L250.847 269.181C251.977 269.936 253.22 270.314 254.576 270.314H255.593C256.949 270.314 258.023 269.828 258.814 268.857L263.22 263.677C264.011 262.706 265.085 262.22 266.441 262.22H267.458C268.814 262.22 269.887 262.76 270.678 263.839L274.576 269.019C276.836 272.04 278.531 275.331 279.661 278.892L285.424 297.992C286.102 300.043 287.345 301.715 289.153 303.01L290.508 303.981C292.316 305.276 294.35 305.87 296.61 305.762L369.492 302.848C371.751 302.74 373.785 302.039 375.593 300.744L376.949 299.773C378.757 298.478 380.113 296.859 381.017 294.917L405.254 238.912C407.401 233.948 409.379 228.93 411.186 223.858L419.322 200.226C421.13 195.155 422.542 189.975 423.559 184.687L425.593 173.033Z" fill="#C8AE8A"/>
</svg>
