<svg xmlns="http://www.w3.org/2000/svg" viewBox="0 0 32 32">
  <rect width="32" height="32" rx="6" fill="#2D4A3E"/>
  <g transform="translate(4, 7)">
    <!-- Vehicle silhouette -->
    <path d="M3 13 L3 9 L6 9 L7 6 L11 5 L17 5 L19 6 L21 9 L21 13" fill="none" stroke="#C4A882" stroke-width="1.5" stroke-linecap="round" stroke-linejoin="round"/>
    <!-- Roof rack -->
    <line x1="8" y1="5" x2="16" y2="5" stroke="#C4A882" stroke-width="1" stroke-linecap="round"/>
    <!-- Wheels -->
    <circle cx="7" cy="13" r="2.5" fill="#2D4A3E" stroke="#C4A882" stroke-width="1.5"/>
    <circle cx="18" cy="13" r="2.5" fill="#2D4A3E" stroke="#C4A882" stroke-width="1.5"/>
    <!-- Axle line -->
    <line x1="9.5" y1="13" x2="15.5" y2="13" stroke="#C4A882" stroke-width="1" stroke-linecap="round"/>
    <!-- Window -->
    <path d="M8 6.5 L11 6.5 L11 8.5 L7.5 8.5 Z" fill="#C4A882" opacity="0.3"/>
    <path d="M12 6.5 L17 6.5 L18.5 8.5 L12 8.5 Z" fill="#C4A882" opacity="0.3"/>
    <!-- Road lines -->
    <line x1="0" y1="17" x2="8" y2="17" stroke="#C4A882" stroke-width="0.8" opacity="0.4" stroke-linecap="round"/>
    <line x1="10" y1="17" x2="14" y2="17" stroke="#C4A882" stroke-width="0.8" opacity="0.4" stroke-linecap="round"/>
    <line x1="16" y1="17" x2="24" y2="17" stroke="#C4A882" stroke-width="0.8" opacity="0.4" stroke-linecap="round"/>
  </g>
</svg>
