<svg width="1000" height="1000" viewBox="0 0 1000 1000" fill="none" xmlns="http://www.w3.org/2000/svg">
<rect width="1000" height="1000" fill="black"/>
<path fill-rule="evenodd" clip-rule="evenodd" d="M470.339 613.003C470.339 614.73 471.243 615.593 473.051 615.593L635.763 617.212C637.345 617.212 638.814 616.78 640.169 615.917L641.186 615.269C642.542 614.406 643.559 613.273 644.237 611.87L646.271 608.147C647.627 605.558 648.531 602.806 648.983 599.892L649.322 597.464C649.774 594.443 648.418 592.932 645.254 592.932H486.441C481.356 592.932 477.684 595.09 475.424 599.407L471.525 606.853C470.734 608.363 470.339 609.982 470.339 611.708V613.003ZM678.136 604.263C677.458 605.342 677.119 606.529 677.119 607.824V609.442C677.119 610.306 677.571 610.737 678.474 610.737H679.153C680.056 610.737 680.847 610.414 681.525 609.766L689.83 601.835C693.785 598.058 698.136 594.713 702.881 591.799L712.373 585.972C717.119 583.058 722.203 580.846 727.627 579.336L740.169 575.775C745.593 574.264 751.13 573.508 756.78 573.508H763.559C769.209 573.508 774.746 574.318 780.169 575.936L785.932 577.555C791.356 579.174 796.497 581.386 801.356 584.192L808.814 588.724C813.672 591.529 817.966 594.982 821.695 599.083L834.915 613.327C838.192 616.996 840.96 620.989 843.22 625.305L845.763 630.161C847.458 633.398 848.757 636.743 849.661 640.197L851.356 646.671C851.582 647.534 852.147 647.966 853.051 647.966H853.729C854.633 647.966 855.198 647.534 855.424 646.671L856.102 644.081C856.554 642.355 856.723 640.628 856.61 638.902L855.424 621.744C855.198 617.643 854.407 613.651 853.051 609.766L852.034 606.853C850.678 602.968 848.87 599.299 846.61 595.846L840.508 586.296C837.797 582.087 834.633 578.257 831.017 574.803L828.136 572.052C824.633 568.707 820.847 565.739 816.78 563.149L813.729 561.207C809.661 558.617 805.311 556.567 800.678 555.056L790.169 551.819C784.859 550.092 779.378 549.229 773.729 549.229H758.475C752.825 549.229 747.345 550.2 742.034 552.142L722.373 559.264C717.062 561.207 712.316 564.012 708.135 567.681L696.949 577.717C692.768 581.386 689.265 585.54 686.441 590.181L678.136 604.263ZM438.983 390.602C436.158 390.602 435.198 391.897 436.102 394.486L436.78 396.429C437.684 399.019 439.096 401.339 441.017 403.389L445.254 408.083C448.418 411.536 452.429 413.317 457.288 413.425L515.508 414.072L573.729 414.719C579.378 414.827 584.181 416.824 588.136 420.708L640.508 472.181C641.186 472.829 641.525 473.584 641.525 474.447V475.095C641.525 475.958 641.073 476.444 640.169 476.552L545.254 482.703C543.898 482.81 543.22 483.512 543.22 484.807V485.778C543.22 487.073 543.616 488.26 544.407 489.339L548.305 494.519C550.565 497.54 553.616 499.105 557.458 499.213L697.458 503.583C703.107 503.799 708.701 504.284 714.237 505.04L843.22 522.845C845.48 523.169 847.514 523.978 849.322 525.273L850.678 526.244C852.486 527.539 853.955 529.104 855.085 530.938L884.746 581.116C887.571 585.756 891.751 588.562 897.288 589.533L928.135 594.713C933.672 595.684 936.667 593.472 937.119 588.076L937.458 583.22C937.909 577.825 935.593 573.94 930.508 571.566L925.424 568.976C920.339 566.602 916.384 563.095 913.559 558.455L888.136 515.723C885.311 511.083 881.695 507.036 877.288 503.583L871.864 499.375C867.458 495.921 862.486 493.817 856.949 493.062L709.152 472.667C703.616 471.912 698.757 469.753 694.576 466.192L610.508 394.325C606.328 390.764 601.412 388.983 595.763 388.983L438.983 390.602ZM664.746 391.411C663.955 391.951 663.559 392.652 663.559 393.515V394.163C663.559 395.026 664.011 395.458 664.915 395.458H667.627C669.435 395.458 671.186 395.134 672.881 394.486L695.424 385.584C697.91 384.613 700.508 384.343 703.22 384.775L705.254 385.098C707.966 385.53 710.395 386.609 712.542 388.336L715.424 390.602C718.136 392.76 721.13 394.54 724.407 395.943L728.644 397.724C732.712 399.45 736.893 399.774 741.186 398.695L760.339 393.839C764.746 392.76 769.209 392.22 773.729 392.22H777.119C781.638 392.22 785.876 393.245 789.83 395.296L795.085 398.047C800.056 400.637 804.802 403.551 809.322 406.788L831.356 422.975C835.876 426.212 840.678 428.964 845.763 431.23L860.508 437.704C862.542 438.675 864.689 438.945 866.949 438.514L870.678 437.866C871.582 437.65 872.034 437.111 872.034 436.247V435.6C872.034 434.737 871.751 433.981 871.186 433.334L852.373 412.615C850.791 410.889 849.548 408.946 848.644 406.788L847.966 405.169C847.062 403.011 847.627 401.285 849.661 399.99L852.881 398.047C855.48 396.321 858.362 395.458 861.525 395.458H863.898C867.062 395.458 869.887 396.375 872.373 398.209L907.797 424.431C912.203 427.777 916.893 430.798 921.864 433.496L938.475 442.398C940.508 443.477 942.655 444.233 944.915 444.664L948.644 445.312C949.548 445.528 950 445.204 950 444.341V443.693C950 442.83 949.661 442.129 948.983 441.589L925.593 420.385C921.525 416.716 917.74 412.777 914.237 408.569L884.068 372.635C880.565 368.426 876.836 364.434 872.881 360.657L866.441 354.506C864.52 352.671 862.203 351.538 859.492 351.107L857.458 350.783C854.746 350.351 852.429 351.053 850.508 352.887L827.288 375.063C826.61 375.71 825.819 376.034 824.915 376.034H824.237C823.333 376.034 822.542 375.764 821.864 375.225L787.966 345.603C784.124 342.15 779.943 339.129 775.424 336.539L768.814 332.654C766.441 331.359 763.898 330.712 761.186 330.712H758.135C756.102 330.712 754.181 331.144 752.373 332.007L751.017 332.654C749.209 333.518 747.571 334.651 746.102 336.053L733.898 347.708C729.943 351.484 725.537 354.722 720.678 357.42L699.661 368.75C694.802 371.448 690.056 374.361 685.424 377.491L664.746 391.411ZM516.949 355.639C516.384 356.286 516.102 357.042 516.102 357.905V358.553C516.102 359.416 516.554 359.847 517.458 359.847H520.169C521.977 359.847 523.729 359.578 525.424 359.038L553.729 350.945C559.153 349.326 564.689 348.301 570.339 347.87L575.424 347.546C581.073 347.114 586.61 347.654 592.034 349.164L599.492 351.107C604.915 352.618 610 354.884 614.746 357.905L635.932 371.34C637.401 372.311 639.04 372.797 640.847 372.797H642.881C644.237 372.797 644.915 372.149 644.915 370.854V369.883C644.915 368.588 644.633 367.347 644.068 366.16L640.847 360.171C639.04 356.718 636.893 353.481 634.407 350.459L631.017 346.251C627.853 342.366 624.181 339.021 620 336.215L616.102 333.625C611.582 330.604 606.667 328.392 601.356 326.989L592.034 324.723C586.61 323.32 581.073 322.834 575.424 323.266L570.339 323.59C564.689 324.021 559.265 325.262 554.068 327.313L546.949 330.226C543.333 331.629 539.943 333.41 536.78 335.568L534.407 337.186C531.243 339.345 528.475 341.881 526.102 344.794L516.949 355.639Z" fill="#D6C2A4"/>
<path fill-rule="evenodd" clip-rule="evenodd" d="M438.983 390.602C436.158 390.602 435.198 391.897 436.102 394.486L436.78 396.429C437.684 399.019 439.096 401.339 441.017 403.389L445.254 408.083C448.418 411.536 452.429 413.317 457.288 413.425L515.508 414.072L573.729 414.719C579.378 414.827 584.181 416.824 588.136 420.708L640.508 472.181C641.186 472.829 641.525 473.584 641.525 474.447V475.095C641.525 475.958 641.073 476.444 640.169 476.552L545.254 482.703C543.898 482.81 543.22 483.512 543.22 484.807V485.778C543.22 487.073 543.616 488.26 544.407 489.339L548.305 494.519C550.565 497.54 553.616 499.105 557.458 499.213L697.458 503.583C703.107 503.799 708.701 504.284 714.237 505.04L843.22 522.845C845.48 523.169 847.514 523.978 849.322 525.273L850.678 526.244C852.486 527.539 853.955 529.104 855.085 530.938L884.746 581.116C887.571 585.756 891.751 588.562 897.288 589.533L928.135 594.713C933.672 595.684 936.667 593.472 937.119 588.076L937.458 583.22C937.909 577.825 935.593 573.94 930.508 571.566L925.424 568.976C920.339 566.602 916.384 563.095 913.559 558.455L888.136 515.723C885.311 511.083 881.695 507.036 877.288 503.583L871.864 499.375C867.458 495.921 862.486 493.817 856.949 493.062L709.152 472.667C703.616 471.912 698.757 469.753 694.576 466.192L610.508 394.325C606.328 390.764 601.412 388.983 595.763 388.983L438.983 390.602ZM664.746 391.411C663.955 391.951 663.559 392.652 663.559 393.515V394.163C663.559 395.026 664.011 395.458 664.915 395.458H667.627C669.435 395.458 671.186 395.134 672.881 394.486L695.424 385.584C697.91 384.613 700.508 384.343 703.22 384.775L705.254 385.098C707.966 385.53 710.395 386.609 712.542 388.336L715.424 390.602C718.136 392.76 721.13 394.54 724.407 395.943L728.644 397.724C732.712 399.45 736.893 399.774 741.186 398.695L760.339 393.839C764.746 392.76 769.209 392.22 773.729 392.22H777.119C781.638 392.22 785.876 393.245 789.83 395.296L795.085 398.047C800.056 400.637 804.802 403.551 809.322 406.788L831.356 422.975C835.876 426.212 840.678 428.964 845.763 431.23L860.508 437.704C862.542 438.675 864.689 438.945 866.949 438.514L870.678 437.866C871.582 437.65 872.034 437.111 872.034 436.247V435.6C872.034 434.737 871.751 433.981 871.186 433.334L852.373 412.615C850.791 410.889 849.548 408.946 848.644 406.788L847.966 405.169C847.062 403.011 847.627 401.285 849.661 399.99L852.881 398.047C855.48 396.321 858.362 395.458 861.525 395.458H863.898C867.062 395.458 869.887 396.375 872.373 398.209L907.797 424.431C912.203 427.777 916.893 430.798 921.864 433.496L938.475 442.398C940.508 443.477 942.655 444.233 944.915 444.664L948.644 445.312C949.548 445.528 950 445.204 950 444.341V443.693C950 442.83 949.661 442.129 948.983 441.589L925.593 420.385C921.525 416.716 917.74 412.777 914.237 408.569L884.068 372.635C880.565 368.426 876.836 364.434 872.881 360.657L866.441 354.506C864.52 352.671 862.203 351.538 859.492 351.107L857.458 350.783C854.746 350.351 852.429 351.053 850.508 352.887L827.288 375.063C826.61 375.71 825.819 376.034 824.915 376.034H824.237C823.333 376.034 822.542 375.764 821.864 375.225L787.966 345.603C784.124 342.15 779.943 339.129 775.424 336.539L768.814 332.654C766.441 331.359 763.898 330.712 761.186 330.712H758.135C756.102 330.712 754.181 331.144 752.373 332.007L751.017 332.654C749.209 333.518 747.571 334.651 746.102 336.053L733.898 347.708C729.943 351.484 725.537 354.722 720.678 357.42L699.661 368.75C694.802 371.448 690.056 374.361 685.424 377.491L664.746 391.411ZM516.949 355.639C516.384 356.286 516.102 357.042 516.102 357.905V358.553C516.102 359.416 516.554 359.847 517.458 359.847H520.169C521.977 359.847 523.729 359.578 525.424 359.038L553.729 350.945C559.153 349.326 564.689 348.301 570.339 347.87L575.424 347.546C581.073 347.114 586.61 347.654 592.034 349.164L599.492 351.107C604.915 352.618 610 354.884 614.746 357.905L635.932 371.34C637.401 372.311 639.04 372.797 640.847 372.797H642.881C644.237 372.797 644.915 372.149 644.915 370.854V369.883C644.915 368.588 644.633 367.347 644.068 366.16L640.847 360.171C639.04 356.718 636.893 353.481 634.407 350.459L631.017 346.251C627.853 342.366 624.181 339.021 620 336.215L616.102 333.625C611.582 330.604 606.667 328.392 601.356 326.989L592.034 324.723C586.61 323.32 581.073 322.834 575.424 323.266L570.339 323.59C564.689 324.021 559.265 325.262 554.068 327.313L546.949 330.226C543.333 331.629 539.943 333.41 536.78 335.568L534.407 337.186C531.243 339.345 528.475 341.881 526.102 344.794L516.949 355.639Z" fill="#D6C2A4"/>
<path fill-rule="evenodd" clip-rule="evenodd" d="M438.983 390.602C436.158 390.602 435.198 391.897 436.102 394.486L436.78 396.429C437.684 399.019 439.096 401.339 441.017 403.389L445.254 408.083C448.418 411.536 452.429 413.317 457.288 413.425L515.508 414.072L573.729 414.719C579.378 414.827 584.181 416.824 588.136 420.708L640.508 472.181C641.186 472.829 641.525 473.584 641.525 474.447V475.095C641.525 475.958 641.073 476.444 640.169 476.552L545.254 482.703C543.898 482.81 543.22 483.512 543.22 484.807V485.778C543.22 487.073 543.616 488.26 544.407 489.339L548.305 494.519C550.565 497.54 553.616 499.105 557.458 499.213L697.458 503.583C703.107 503.799 708.701 504.284 714.237 505.04L843.22 522.845C845.48 523.169 847.514 523.978 849.322 525.273L850.678 526.244C852.486 527.539 853.955 529.104 855.085 530.938L884.746 581.116C887.571 585.756 891.751 588.562 897.288 589.533L928.135 594.713C933.672 595.684 936.667 593.472 937.119 588.076L937.458 583.22C937.909 577.825 935.593 573.94 930.508 571.566L925.424 568.976C920.339 566.602 916.384 563.095 913.559 558.455L888.136 515.723C885.311 511.083 881.695 507.036 877.288 503.583L871.864 499.375C867.458 495.921 862.486 493.817 856.949 493.062L709.152 472.667C703.616 471.912 698.757 469.753 694.576 466.192L610.508 394.325C606.328 390.764 601.412 388.983 595.763 388.983L438.983 390.602ZM664.746 391.411C663.955 391.951 663.559 392.652 663.559 393.515V394.163C663.559 395.026 664.011 395.458 664.915 395.458H667.627C669.435 395.458 671.186 395.134 672.881 394.486L695.424 385.584C697.91 384.613 700.508 384.343 703.22 384.775L705.254 385.098C707.966 385.53 710.395 386.609 712.542 388.336L715.424 390.602C718.136 392.76 721.13 394.54 724.407 395.943L728.644 397.724C732.712 399.45 736.893 399.774 741.186 398.695L760.339 393.839C764.746 392.76 769.209 392.22 773.729 392.22H777.119C781.638 392.22 785.876 393.245 789.83 395.296L795.085 398.047C800.056 400.637 804.802 403.551 809.322 406.788L831.356 422.975C835.876 426.212 840.678 428.964 845.763 431.23L860.508 437.704C862.542 438.675 864.689 438.945 866.949 438.514L870.678 437.866C871.582 437.65 872.034 437.111 872.034 436.247V435.6C872.034 434.737 871.751 433.981 871.186 433.334L852.373 412.615C850.791 410.889 849.548 408.946 848.644 406.788L847.966 405.169C847.062 403.011 847.627 401.285 849.661 399.99L852.881 398.047C855.48 396.321 858.362 395.458 861.525 395.458H863.898C867.062 395.458 869.887 396.375 872.373 398.209L907.797 424.431C912.203 427.777 916.893 430.798 921.864 433.496L938.475 442.398C940.508 443.477 942.655 444.233 944.915 444.664L948.644 445.312C949.548 445.528 950 445.204 950 444.341V443.693C950 442.83 949.661 442.129 948.983 441.589L925.593 420.385C921.525 416.716 917.74 412.777 914.237 408.569L884.068 372.635C880.565 368.426 876.836 364.434 872.881 360.657L866.441 354.506C864.52 352.671 862.203 351.538 859.492 351.107L857.458 350.783C854.746 350.351 852.429 351.053 850.508 352.887L827.288 375.063C826.61 375.71 825.819 376.034 824.915 376.034H824.237C823.333 376.034 822.542 375.764 821.864 375.225L787.966 345.603C784.124 342.15 779.943 339.129 775.424 336.539L768.814 332.654C766.441 331.359 763.898 330.712 761.186 330.712H758.135C756.102 330.712 754.181 331.144 752.373 332.007L751.017 332.654C749.209 333.518 747.571 334.651 746.102 336.053L733.898 347.708C729.943 351.484 725.537 354.722 720.678 357.42L699.661 368.75C694.802 371.448 690.056 374.361 685.424 377.491L664.746 391.411ZM516.949 355.639C516.384 356.286 516.102 357.042 516.102 357.905V358.553C516.102 359.416 516.554 359.847 517.458 359.847H520.169C521.977 359.847 523.729 359.578 525.424 359.038L553.729 350.945C559.153 349.326 564.689 348.301 570.339 347.87L575.424 347.546C581.073 347.114 586.61 347.654 592.034 349.164L599.492 351.107C604.915 352.618 610 354.884 614.746 357.905L635.932 371.34C637.401 372.311 639.04 372.797 640.847 372.797H642.881C644.237 372.797 644.915 372.149 644.915 370.854V369.883C644.915 368.588 644.633 367.347 644.068 366.16L640.847 360.171C639.04 356.718 636.893 353.481 634.407 350.459L631.017 346.251C627.853 342.366 624.181 339.021 620 336.215L616.102 333.625C611.582 330.604 606.667 328.392 601.356 326.989L592.034 324.723C586.61 323.32 581.073 322.834 575.424 323.266L570.339 323.59C564.689 324.021 559.265 325.262 554.068 327.313L546.949 330.226C543.333 331.629 539.943 333.41 536.78 335.568L534.407 337.186C531.243 339.345 528.475 341.881 526.102 344.794L516.949 355.639Z" fill="#D6C2A4"/>
<path fill-rule="evenodd" clip-rule="evenodd" d="M516.949 355.639C516.384 356.286 516.102 357.042 516.102 357.905V358.553C516.102 359.416 516.554 359.847 517.457 359.847H520.169C521.977 359.847 523.729 359.578 525.424 359.038L553.729 350.945C559.152 349.326 564.689 348.301 570.339 347.87L575.424 347.546C581.073 347.114 586.61 347.654 592.034 349.164L599.491 351.107C604.915 352.618 610 354.884 614.746 357.905L635.932 371.34C637.401 372.311 639.039 372.797 640.847 372.797H642.881C644.237 372.797 644.915 372.149 644.915 370.854V369.883C644.915 368.588 644.633 367.347 644.068 366.16L640.847 360.171C639.039 356.718 636.893 353.481 634.407 350.459L631.017 346.251C627.853 342.366 624.181 339.021 620 336.215L616.102 333.625C611.582 330.604 606.666 328.392 601.356 326.989L592.034 324.723C586.61 323.32 581.073 322.834 575.424 323.266L570.339 323.59C564.689 324.021 559.265 325.262 554.068 327.313L546.949 330.226C543.333 331.629 539.943 333.41 536.78 335.568L534.407 337.186C531.243 339.345 528.474 341.881 526.102 344.794L516.949 355.639Z" fill="#A8BAC2"/>
<path fill-rule="evenodd" clip-rule="evenodd" d="M664.746 391.411C663.955 391.951 663.56 392.652 663.56 393.515V394.163C663.56 395.026 664.012 395.458 664.915 395.458H667.627C669.435 395.458 671.187 395.134 672.882 394.486L695.424 385.584C697.91 384.613 700.509 384.343 703.221 384.775L705.255 385.098C707.966 385.53 710.396 386.609 712.543 388.336L715.424 390.602C718.136 392.76 721.13 394.54 724.407 395.943L728.644 397.724C732.712 399.45 736.893 399.774 741.187 398.695L760.339 393.839C764.746 392.76 769.209 392.22 773.729 392.22H777.119C781.639 392.22 785.876 393.246 789.831 395.296L795.085 398.048C800.057 400.637 804.802 403.551 809.322 406.788L831.356 422.975C835.876 426.212 840.678 428.964 845.763 431.23L860.509 437.704C862.543 438.675 864.69 438.945 866.949 438.514L870.678 437.866C871.582 437.65 872.034 437.111 872.034 436.247V435.6C872.034 434.737 871.752 433.981 871.187 433.334L852.373 412.615C850.791 410.889 849.548 408.946 848.644 406.788L847.966 405.17C847.062 403.011 847.627 401.285 849.661 399.99L852.882 398.048C855.481 396.321 858.362 395.458 861.526 395.458H863.899C867.062 395.458 869.887 396.375 872.373 398.209L907.797 424.431C912.204 427.777 916.893 430.798 921.865 433.496L938.475 442.398C940.509 443.477 942.656 444.233 944.916 444.664L948.644 445.312C949.548 445.528 950 445.204 950 444.341V443.693C950 442.83 949.661 442.129 948.983 441.589L925.593 420.385C921.526 416.716 917.74 412.777 914.238 408.569L884.068 372.635C880.565 368.426 876.836 364.434 872.882 360.657L866.441 354.506C864.52 352.672 862.204 351.538 859.492 351.107L857.458 350.783C854.746 350.351 852.43 351.053 850.509 352.887L827.288 375.063C826.61 375.71 825.819 376.034 824.916 376.034H824.238C823.334 376.034 822.543 375.764 821.865 375.225L787.966 345.603C784.125 342.15 779.944 339.129 775.424 336.539L768.814 332.654C766.441 331.359 763.899 330.712 761.187 330.712H758.136C756.102 330.712 754.181 331.144 752.373 332.007L751.017 332.654C749.209 333.518 747.571 334.651 746.102 336.053L733.899 347.708C729.944 351.485 725.537 354.722 720.678 357.42L699.661 368.75C694.802 371.448 690.057 374.361 685.424 377.491L664.746 391.411Z" fill="#6F7744"/>
<path fill-rule="evenodd" clip-rule="evenodd" d="M438.983 390.602C436.158 390.602 435.198 391.897 436.102 394.486L436.78 396.429C437.684 399.019 439.096 401.339 441.017 403.389L445.254 408.083C448.418 411.536 452.429 413.317 457.288 413.425L515.508 414.072L573.729 414.719C579.378 414.827 584.181 416.824 588.136 420.708L640.508 472.181C641.186 472.829 641.525 473.584 641.525 474.447V475.095C641.525 475.958 641.073 476.444 640.169 476.552L545.254 482.703C543.898 482.81 543.22 483.512 543.22 484.807V485.778C543.22 487.073 543.616 488.26 544.407 489.339L548.305 494.519C550.565 497.54 553.616 499.105 557.458 499.213L697.458 503.583C703.107 503.799 708.701 504.284 714.237 505.04L843.22 522.845C845.48 523.169 847.514 523.978 849.322 525.273L850.678 526.244C852.486 527.539 853.955 529.104 855.085 530.938L884.746 581.116C887.571 585.756 891.751 588.562 897.288 589.533L928.135 594.713C933.672 595.684 936.667 593.472 937.119 588.076L937.458 583.22C937.909 577.825 935.593 573.94 930.508 571.566L925.424 568.976C920.339 566.602 916.384 563.095 913.559 558.455L888.136 515.723C885.311 511.083 881.695 507.036 877.288 503.583L871.864 499.375C867.458 495.921 862.486 493.817 856.949 493.062L709.152 472.667C703.616 471.912 698.757 469.753 694.576 466.192L610.508 394.325C606.328 390.764 601.412 388.983 595.763 388.983L438.983 390.602Z" fill="#C5C5C5"/>
<path fill-rule="evenodd" clip-rule="evenodd" d="M678.136 604.263C677.458 605.342 677.119 606.529 677.119 607.824V609.442C677.119 610.306 677.571 610.737 678.475 610.737H679.153C680.057 610.737 680.847 610.413 681.525 609.766L689.831 601.835C693.785 598.058 698.136 594.713 702.881 591.799L712.373 585.972C717.119 583.058 722.203 580.846 727.627 579.336L740.17 575.775C745.593 574.264 751.13 573.508 756.78 573.508H763.559C769.209 573.508 774.746 574.318 780.169 575.936L785.932 577.555C791.356 579.174 796.497 581.386 801.356 584.191L808.814 588.724C813.672 591.529 817.966 594.982 821.695 599.083L834.915 613.327C838.192 616.996 840.96 620.989 843.22 625.305L845.763 630.161C847.458 633.398 848.757 636.743 849.661 640.197L851.356 646.671C851.582 647.534 852.147 647.966 853.051 647.966H853.729C854.633 647.966 855.198 647.534 855.424 646.671L856.102 644.081C856.554 642.355 856.723 640.628 856.61 638.902L855.424 621.744C855.198 617.643 854.407 613.651 853.051 609.766L852.034 606.852C850.678 602.968 848.87 599.299 846.61 595.846L840.508 586.296C837.797 582.087 834.633 578.256 831.017 574.803L828.136 572.052C824.633 568.706 820.847 565.739 816.78 563.149L813.729 561.207C809.661 558.617 805.311 556.567 800.678 555.056L790.17 551.819C784.859 550.092 779.379 549.229 773.729 549.229H758.475C752.825 549.229 747.345 550.2 742.034 552.142L722.373 559.264C717.062 561.207 712.316 564.012 708.136 567.681L696.949 577.717C692.768 581.386 689.266 585.54 686.441 590.18L678.136 604.263Z" fill="#C5C5C5"/>
<path fill-rule="evenodd" clip-rule="evenodd" d="M470.339 613.003C470.339 614.73 471.243 615.593 473.051 615.593L635.763 617.212C637.345 617.212 638.814 616.78 640.169 615.917L641.186 615.269C642.542 614.406 643.559 613.273 644.237 611.87L646.271 608.147C647.627 605.558 648.531 602.806 648.983 599.892L649.322 597.464C649.774 594.443 648.418 592.932 645.254 592.932H486.441C481.356 592.932 477.684 595.09 475.424 599.407L471.525 606.853C470.734 608.363 470.339 609.982 470.339 611.708V613.003Z" fill="#C5C5C5"/>
<path fill-rule="evenodd" clip-rule="evenodd" d="M367.797 651.042C364.972 651.149 364.011 652.498 364.915 655.088L365.593 657.031C366.497 659.62 367.91 661.94 369.831 663.991L382.373 676.94C384.52 679.206 387.175 680.123 390.339 679.692L392.712 679.368C395.876 678.936 398.305 677.425 400 674.836L411.695 656.059C412.373 654.98 412.712 653.793 412.712 652.498V651.527C412.712 650.232 412.034 649.585 410.678 649.585L367.797 651.042ZM475.593 494.033C476.61 488.745 475.424 483.943 472.034 479.627L429.661 424.593C426.271 420.277 423.446 415.637 421.186 410.673L381.525 323.428C380.847 321.809 379.605 321 377.797 321H376.441C374.633 321 373.39 321.809 372.712 323.428L346.441 383.156C344.294 388.12 340.565 389.684 335.254 387.85L318.814 382.023C313.616 380.188 308.757 377.76 304.237 374.739L300.847 372.473C296.328 369.451 295.254 365.567 297.627 360.819L306.102 343.337C307.119 341.395 307.401 339.345 306.949 337.186L306.61 335.568C306.158 333.41 304.802 332.169 302.542 331.845L263.559 326.989C257.91 326.234 252.655 327.205 247.797 329.903L242.034 333.14C237.175 335.838 233.22 339.453 230.169 343.985L224.068 353.049C221.017 357.581 216.667 359.524 211.017 358.876L197.458 357.581C191.808 356.934 187.119 358.66 183.39 362.761L147.119 402.256C143.39 406.356 139.04 409.648 134.068 412.13L103.22 427.345C98.2486 429.827 93.3898 432.579 88.6441 435.6L54.5763 457.29C51.5254 459.232 50 461.93 50 465.383V467.973C50 471.426 50.452 474.825 51.3559 478.17L71.5254 549.553C72.9944 554.732 73.5593 560.02 73.2203 565.415L72.5424 575.127C72.2034 580.523 73.9548 585.217 77.7966 589.209L85.2542 597.141C87.7401 599.731 90.791 600.81 94.4068 600.378L97.1186 600.054C100.734 599.623 104.237 598.759 107.627 597.464L235.254 550.524C240.565 548.581 245.48 549.283 250 552.628L300.847 590.181C301.977 590.936 303.22 591.314 304.576 591.314H305.593C306.949 591.314 308.023 590.828 308.814 589.857L313.22 584.677C314.011 583.706 315.085 583.22 316.441 583.22H317.458C318.814 583.22 319.887 583.76 320.678 584.839L324.576 590.019C326.836 593.04 328.531 596.331 329.661 599.892L335.424 618.992C336.102 621.043 337.345 622.715 339.153 624.01L340.508 624.981C342.316 626.276 344.35 626.87 346.61 626.762L419.492 623.848C421.751 623.74 423.785 623.039 425.593 621.744L426.949 620.773C428.757 619.478 430.113 617.859 431.017 615.917L455.254 559.912C457.401 554.948 459.379 549.93 461.186 544.858L469.322 521.226C471.13 516.155 472.542 510.975 473.559 505.687L475.593 494.033Z" fill="#C8AE8A"/>
<path fill-rule="evenodd" clip-rule="evenodd" d="M516.949 355.639C516.384 356.286 516.102 357.042 516.102 357.905V358.553C516.102 359.416 516.554 359.847 517.457 359.847H520.169C521.977 359.847 523.729 359.578 525.424 359.038L553.729 350.945C559.152 349.326 564.689 348.301 570.339 347.87L575.424 347.546C581.073 347.114 586.61 347.654 592.034 349.164L599.491 351.107C604.915 352.618 610 354.884 614.746 357.905L635.932 371.34C637.401 372.311 639.039 372.797 640.847 372.797H642.881C644.237 372.797 644.915 372.149 644.915 370.854V369.883C644.915 368.588 644.633 367.347 644.068 366.16L640.847 360.171C639.039 356.718 636.893 353.481 634.407 350.459L631.017 346.251C627.853 342.366 624.181 339.021 620 336.215L616.102 333.625C611.582 330.604 606.666 328.392 601.356 326.989L592.034 324.723C586.61 323.32 581.073 322.834 575.424 323.266L570.339 323.59C564.689 324.021 559.265 325.262 554.068 327.313L546.949 330.226C543.333 331.629 539.943 333.41 536.78 335.568L534.407 337.186C531.243 339.345 528.474 341.881 526.102 344.794L516.949 355.639Z" fill="#A8BAC2"/>
<path fill-rule="evenodd" clip-rule="evenodd" d="M664.746 391.411C663.955 391.951 663.56 392.652 663.56 393.515V394.163C663.56 395.026 664.012 395.458 664.915 395.458H667.627C669.435 395.458 671.187 395.134 672.882 394.486L695.424 385.584C697.91 384.613 700.509 384.343 703.221 384.775L705.255 385.098C707.966 385.53 710.396 386.609 712.543 388.336L715.424 390.602C718.136 392.76 721.13 394.54 724.407 395.943L728.644 397.724C732.712 399.45 736.893 399.774 741.187 398.695L760.339 393.839C764.746 392.76 769.209 392.22 773.729 392.22H777.119C781.639 392.22 785.876 393.246 789.831 395.296L795.085 398.048C800.057 400.637 804.802 403.551 809.322 406.788L831.356 422.975C835.876 426.212 840.678 428.964 845.763 431.23L860.509 437.704C862.543 438.675 864.69 438.945 866.949 438.514L870.678 437.866C871.582 437.65 872.034 437.111 872.034 436.247V435.6C872.034 434.737 871.752 433.981 871.187 433.334L852.373 412.615C850.791 410.889 849.548 408.946 848.644 406.788L847.966 405.17C847.062 403.011 847.627 401.285 849.661 399.99L852.882 398.048C855.481 396.321 858.362 395.458 861.526 395.458H863.899C867.062 395.458 869.887 396.375 872.373 398.209L907.797 424.431C912.204 427.777 916.893 430.798 921.865 433.496L938.475 442.398C940.509 443.477 942.656 444.233 944.916 444.664L948.644 445.312C949.548 445.528 950 445.204 950 444.341V443.693C950 442.83 949.661 442.129 948.983 441.589L925.593 420.385C921.526 416.716 917.74 412.777 914.238 408.569L884.068 372.635C880.565 368.426 876.836 364.434 872.882 360.657L866.441 354.506C864.52 352.672 862.204 351.538 859.492 351.107L857.458 350.783C854.746 350.351 852.43 351.053 850.509 352.887L827.288 375.063C826.61 375.71 825.819 376.034 824.916 376.034H824.238C823.334 376.034 822.543 375.764 821.865 375.225L787.966 345.603C784.125 342.15 779.944 339.129 775.424 336.539L768.814 332.654C766.441 331.359 763.899 330.712 761.187 330.712H758.136C756.102 330.712 754.181 331.144 752.373 332.007L751.017 332.654C749.209 333.518 747.571 334.651 746.102 336.053L733.899 347.708C729.944 351.485 725.537 354.722 720.678 357.42L699.661 368.75C694.802 371.448 690.057 374.361 685.424 377.491L664.746 391.411Z" fill="#6F7744"/>
<path fill-rule="evenodd" clip-rule="evenodd" d="M438.983 390.602C436.158 390.602 435.198 391.897 436.102 394.486L436.78 396.429C437.684 399.019 439.096 401.339 441.017 403.389L445.254 408.083C448.418 411.536 452.429 413.317 457.288 413.425L515.508 414.072L573.729 414.719C579.378 414.827 584.181 416.824 588.136 420.708L640.508 472.181C641.186 472.829 641.525 473.584 641.525 474.447V475.095C641.525 475.958 641.073 476.444 640.169 476.552L545.254 482.703C543.898 482.81 543.22 483.512 543.22 484.807V485.778C543.22 487.073 543.616 488.26 544.407 489.339L548.305 494.519C550.565 497.54 553.616 499.105 557.458 499.213L697.458 503.583C703.107 503.799 708.701 504.284 714.237 505.04L843.22 522.845C845.48 523.169 847.514 523.978 849.322 525.273L850.678 526.244C852.486 527.539 853.955 529.104 855.085 530.938L884.746 581.116C887.571 585.756 891.751 588.562 897.288 589.533L928.135 594.713C933.672 595.684 936.667 593.472 937.119 588.076L937.458 583.22C937.909 577.825 935.593 573.94 930.508 571.566L925.424 568.976C920.339 566.602 916.384 563.095 913.559 558.455L888.136 515.723C885.311 511.083 881.695 507.036 877.288 503.583L871.864 499.375C867.458 495.921 862.486 493.817 856.949 493.062L709.152 472.667C703.616 471.912 698.757 469.753 694.576 466.192L610.508 394.325C606.328 390.764 601.412 388.983 595.763 388.983L438.983 390.602Z" fill="#C5C5C5"/>
<path fill-rule="evenodd" clip-rule="evenodd" d="M367.797 651.042C364.972 651.149 364.011 652.498 364.915 655.088L365.593 657.031C366.497 659.62 367.91 661.94 369.831 663.991L382.373 676.94C384.52 679.206 387.175 680.123 390.339 679.692L392.712 679.368C395.876 678.936 398.305 677.425 400 674.836L411.695 656.059C412.373 654.98 412.712 653.793 412.712 652.498V651.527C412.712 650.232 412.034 649.585 410.678 649.585L367.797 651.042ZM475.593 494.033C476.61 488.745 475.424 483.943 472.034 479.627L429.661 424.593C426.271 420.277 423.446 415.637 421.186 410.673L381.525 323.428C380.847 321.809 379.605 321 377.797 321H376.441C374.633 321 373.39 321.809 372.712 323.428L346.441 383.156C344.294 388.12 340.565 389.684 335.254 387.85L318.814 382.023C313.616 380.188 308.757 377.76 304.237 374.739L300.847 372.473C296.328 369.451 295.254 365.567 297.627 360.819L306.102 343.337C307.119 341.395 307.401 339.345 306.949 337.186L306.61 335.568C306.158 333.41 304.802 332.169 302.542 331.845L263.559 326.989C257.91 326.234 252.655 327.205 247.797 329.903L242.034 333.14C237.175 335.838 233.22 339.453 230.169 343.985L224.068 353.049C221.017 357.581 216.667 359.524 211.017 358.876L197.458 357.581C191.808 356.934 187.119 358.66 183.39 362.761L147.119 402.256C143.39 406.356 139.04 409.648 134.068 412.13L103.22 427.345C98.2486 429.827 93.3898 432.579 88.6441 435.6L54.5763 457.29C51.5254 459.232 50 461.93 50 465.383V467.973C50 471.426 50.452 474.825 51.3559 478.17L71.5254 549.553C72.9944 554.732 73.5593 560.02 73.2203 565.415L72.5424 575.127C72.2034 580.523 73.9548 585.217 77.7966 589.209L85.2542 597.141C87.7401 599.731 90.791 600.81 94.4068 600.378L97.1186 600.054C100.734 599.623 104.237 598.759 107.627 597.464L235.254 550.524C240.565 548.581 245.48 549.283 250 552.628L300.847 590.181C301.977 590.936 303.22 591.314 304.576 591.314H305.593C306.949 591.314 308.023 590.828 308.814 589.857L313.22 584.677C314.011 583.706 315.085 583.22 316.441 583.22H317.458C318.814 583.22 319.887 583.76 320.678 584.839L324.576 590.019C326.836 593.04 328.531 596.331 329.661 599.892L335.424 618.992C336.102 621.043 337.345 622.715 339.153 624.01L340.508 624.981C342.316 626.276 344.35 626.87 346.61 626.762L419.492 623.848C421.751 623.74 423.785 623.039 425.593 621.744L426.949 620.773C428.757 619.478 430.113 617.859 431.017 615.917L455.254 559.912C457.401 554.948 459.379 549.93 461.186 544.858L469.322 521.226C471.13 516.155 472.542 510.975 473.559 505.687L475.593 494.033Z" fill="#C8AE8A"/>
</svg>
