<svg width="531" height="222" viewBox="0 0 531 222" fill="none" xmlns="http://www.w3.org/2000/svg">
<path fill-rule="evenodd" clip-rule="evenodd" d="M187.5 203.9C185.833 203.967 185.267 204.8 185.8 206.4L186.2 207.6C186.733 209.2 187.567 210.633 188.7 211.9L196.1 219.9C197.367 221.3 198.933 221.867 200.8 221.6L202.2 221.4C204.067 221.133 205.5 220.2 206.5 218.6L213.4 207C213.8 206.333 214 205.6 214 204.8V204.2C214 203.4 213.6 203 212.8 203L187.5 203.9ZM248 180.4C248 181.467 248.533 182 249.6 182L345.6 183C346.533 183 347.4 182.733 348.2 182.2L348.8 181.8C349.6 181.267 350.2 180.567 350.6 179.7L351.8 177.4C352.6 175.8 353.133 174.1 353.4 172.3L353.6 170.8C353.867 168.933 353.067 168 351.2 168H257.5C254.5 168 252.333 169.333 251 172L248.7 176.6C248.233 177.533 248 178.533 248 179.6V180.4ZM370.6 175C370.2 175.667 370 176.4 370 177.2V178.2C370 178.733 370.267 179 370.8 179H371.2C371.733 179 372.2 178.8 372.6 178.4L377.5 173.5C379.833 171.167 382.4 169.1 385.2 167.3L390.8 163.7C393.6 161.9 396.6 160.533 399.8 159.6L407.2 157.4C410.4 156.467 413.667 156 417 156H421C424.333 156 427.6 156.5 430.8 157.5L434.2 158.5C437.4 159.5 440.433 160.867 443.3 162.6L447.7 165.4C450.567 167.133 453.1 169.267 455.3 171.8L463.1 180.6C465.033 182.867 466.667 185.333 468 188L469.5 191C470.5 193 471.267 195.067 471.8 197.2L472.8 201.2C472.933 201.733 473.267 202 473.8 202H474.2C474.733 202 475.067 201.733 475.2 201.2L475.6 199.6C475.867 198.533 475.967 197.467 475.9 196.4L475.2 185.8C475.067 183.267 474.6 180.8 473.8 178.4L473.2 176.6C472.4 174.2 471.333 171.933 470 169.8L466.4 163.9C464.8 161.3 462.933 158.933 460.8 156.8L459.1 155.1C457.033 153.033 454.8 151.2 452.4 149.6L450.6 148.4C448.2 146.8 445.633 145.533 442.9 144.6L436.7 142.6C433.567 141.533 430.333 141 427 141H418C414.667 141 411.433 141.6 408.3 142.8L396.7 147.2C393.567 148.4 390.767 150.133 388.3 152.4L381.7 158.6C379.233 160.867 377.167 163.433 375.5 166.3L370.6 175ZM229.5 43C227.833 43 227.267 43.8 227.8 45.4L228.2 46.6C228.733 48.2 229.567 49.6333 230.7 50.9L233.2 53.8C235.067 55.9333 237.433 57.0333 240.3 57.1L309 57.9C312.333 57.9667 315.167 59.2 317.5 61.6L348.4 93.4C348.8 93.8 349 94.2667 349 94.8V95.2C349 95.7333 348.733 96.0333 348.2 96.1L292.2 99.9C291.4 99.9667 291 100.4 291 101.2V101.8C291 102.6 291.233 103.333 291.7 104L294 107.2C295.333 109.067 297.133 110.033 299.4 110.1L382 112.8C385.333 112.933 388.633 113.233 391.9 113.7L468 124.7C469.333 124.9 470.533 125.4 471.6 126.2L472.4 126.8C473.467 127.6 474.333 128.567 475 129.7L492.5 160.7C494.167 163.567 496.633 165.3 499.9 165.9L518.1 169.1C521.367 169.7 523.133 168.333 523.4 165L523.6 162C523.867 158.667 522.5 156.267 519.5 154.8L516.5 153.2C513.5 151.733 511.167 149.567 509.5 146.7L494.5 120.3C492.833 117.433 490.7 114.933 488.1 112.8L484.9 110.2C482.3 108.067 479.367 106.767 476.1 106.3L388.9 93.7C385.633 93.2333 382.767 91.9 380.3 89.7L330.7 45.3C328.233 43.1 325.333 42 322 42L229.5 43ZM362.7 43.5C362.233 43.8333 362 44.2667 362 44.8V45.2C362 45.7333 362.267 46 362.8 46H364.4C365.467 46 366.5 45.8 367.5 45.4L380.8 39.9C382.267 39.3 383.8 39.1333 385.4 39.4L386.6 39.6C388.2 39.8667 389.633 40.5333 390.9 41.6L392.6 43C394.2 44.3333 395.967 45.4333 397.9 46.3L400.4 47.4C402.8 48.4667 405.267 48.6667 407.8 48L419.1 45C421.7 44.3333 424.333 44 427 44H429C431.667 44 434.167 44.6333 436.5 45.9L439.6 47.6C442.533 49.2 445.333 51 448 53L461 63C463.667 65 466.5 66.7 469.5 68.1L478.2 72.1C479.4 72.7 480.667 72.8667 482 72.6L484.2 72.2C484.733 72.0667 485 71.7333 485 71.2V70.8C485 70.2667 484.833 69.8 484.5 69.4L473.4 56.6C472.467 55.5333 471.733 54.3333 471.2 53L470.8 52C470.267 50.6667 470.6 49.6 471.8 48.8L473.7 47.6C475.233 46.5333 476.933 46 478.8 46H480.2C482.067 46 483.733 46.5667 485.2 47.7L506.1 63.9C508.7 65.9667 511.467 67.8333 514.4 69.5L524.2 75C525.4 75.6667 526.667 76.1333 528 76.4L530.2 76.8C530.733 76.9333 531 76.7333 531 76.2V75.8C531 75.2667 530.8 74.8333 530.4 74.5L516.6 61.4C514.2 59.1333 511.967 56.7 509.9 54.1L492.1 31.9C490.033 29.3 487.833 26.8333 485.5 24.5L481.7 20.7C480.567 19.5667 479.2 18.8667 477.6 18.6L476.4 18.4C474.8 18.1333 473.433 18.5667 472.3 19.7L458.6 33.4C458.2 33.8 457.733 34 457.2 34H456.8C456.267 34 455.8 33.8333 455.4 33.5L435.4 15.2C433.133 13.0667 430.667 11.2 428 9.6L424.1 7.2C422.7 6.4 421.2 6 419.6 6H417.8C416.6 6 415.467 6.26667 414.4 6.8L413.6 7.2C412.533 7.73333 411.567 8.43333 410.7 9.3L403.5 16.5C401.167 18.8333 398.567 20.8333 395.7 22.5L383.3 29.5C380.433 31.1667 377.633 32.9667 374.9 34.9L362.7 43.5ZM275.5 21.4C275.167 21.8 275 22.2667 275 22.8V23.2C275 23.7333 275.267 24 275.8 24H277.4C278.467 24 279.5 23.8333 280.5 23.5L297.2 18.5C300.4 17.5 303.667 16.8667 307 16.6L310 16.4C313.333 16.1333 316.6 16.4667 319.8 17.4L324.2 18.6C327.4 19.5333 330.4 20.9333 333.2 22.8L345.7 31.1C346.567 31.7 347.533 32 348.6 32H349.8C350.6 32 351 31.6 351 30.8V30.2C351 29.4 350.833 28.6333 350.5 27.9L348.6 24.2C347.533 22.0667 346.267 20.0667 344.8 18.2L342.8 15.6C340.933 13.2 338.767 11.1333 336.3 9.4L334 7.8C331.333 5.93333 328.433 4.56667 325.3 3.7L319.8 2.3C316.6 1.43333 313.333 1.13333 310 1.4L307 1.6C303.667 1.86667 300.467 2.63333 297.4 3.9L293.2 5.7C291.067 6.56667 289.067 7.66667 287.2 9L285.8 10C283.933 11.3333 282.3 12.9 280.9 14.7L275.5 21.4ZM251.1 106.9C251.7 103.633 251 100.667 249 98L224 64C222 61.3333 220.333 58.4667 219 55.4L195.6 1.5C195.2 0.5 194.467 0 193.4 0H192.6C191.533 0 190.8 0.5 190.4 1.5L174.9 38.4C173.633 41.4667 171.433 42.4333 168.3 41.3L158.6 37.7C155.533 36.5667 152.667 35.0667 150 33.2L148 31.8C145.333 29.9333 144.7 27.5333 146.1 24.6L151.1 13.8C151.7 12.6 151.867 11.3333 151.6 10L151.4 9C151.133 7.66667 150.333 6.9 149 6.7L126 3.7C122.667 3.23333 119.567 3.83333 116.7 5.5L113.3 7.5C110.433 9.16667 108.1 11.4 106.3 14.2L102.7 19.8C100.9 22.6 98.3333 23.8 95 23.4L87 22.6C83.6667 22.2 80.9 23.2667 78.7 25.8L57.3 50.2C55.1 52.7333 52.5333 54.7667 49.6 56.3L31.4 65.7C28.4667 67.2333 25.6 68.9333 22.8 70.8L2.7 84.2C0.9 85.4 0 87.0667 0 89.2V90.8C0 92.9333 0.266667 95.0333 0.8 97.1L12.7 141.2C13.5667 144.4 13.9 147.667 13.7 151L13.3 157C13.1 160.333 14.1333 163.233 16.4 165.7L20.8 170.6C22.2667 172.2 24.0667 172.867 26.2 172.6L27.8 172.4C29.9333 172.133 32 171.6 34 170.8L109.3 141.8C112.433 140.6 115.333 141.033 118 143.1L148 166.3C148.667 166.767 149.4 167 150.2 167H150.8C151.6 167 152.233 166.7 152.7 166.1L155.3 162.9C155.767 162.3 156.4 162 157.2 162H157.8C158.6 162 159.233 162.333 159.7 163L162 166.2C163.333 168.067 164.333 170.1 165 172.3L168.4 184.1C168.8 185.367 169.533 186.4 170.6 187.2L171.4 187.8C172.467 188.6 173.667 188.967 175 188.9L218 187.1C219.333 187.033 220.533 186.6 221.6 185.8L222.4 185.2C223.467 184.4 224.267 183.4 224.8 182.2L239.1 147.6C240.367 144.533 241.533 141.433 242.6 138.3L247.4 123.7C248.467 120.567 249.3 117.367 249.9 114.1L251.1 106.9Z" fill="black"/>
</svg>
